<svg width="512" height="512" xmlns="http://www.w3.org/2000/svg">

 <g>
  <title>background</title>
  <rect fill="none" id="canvas_background" height="402" width="582" y="-1" x="-1"/>
 </g>
 <g>
  <title>Layer 1</title>
  <path stroke="null" id="svg_1" fill="#FFB655" d="m255.48499,0c-0.004543,0 -0.006814,0 -0.011356,0c-140.864818,0 -255.473634,114.608815 -255.473634,255.48499s114.608815,255.48499 255.473634,255.48499c0.004543,0 0.006814,0 0.011356,0c140.876175,-0.006814 255.48499,-114.611087 255.48499,-255.48499s-114.608815,-255.478176 -255.48499,-255.48499z"/>
  <path stroke="null" id="svg_2" fill="#EE8700" d="m255.473634,0c-140.864818,0 -255.473634,114.608815 -255.473634,255.48499s114.608815,255.48499 255.473634,255.48499c0.004543,0 0.006814,0 0.011356,0l0,-510.96998c-0.004543,0 -0.006814,0 -0.011356,0z"/>
  <path stroke="null" id="svg_5" fill="#A4E276" d="m367.797329,242.19686c-18.58816,0 -33.657686,15.066634 -33.657686,33.657686l0,44.87595c0,31.265652 -18.369782,58.312704 -44.87595,70.941025l0,-48.503049l0,-269.258595c0,-18.589606 -15.069526,-33.657686 -33.657686,-33.657686s-33.657686,15.066634 -33.657686,33.657686l0,228.008297c-26.509061,-12.628321 -44.87595,-39.676819 -44.87595,-70.941025l0,-44.87595c0,-18.589606 -15.069526,-33.657686 -33.657686,-33.657686c-18.58816,0 -33.657686,15.066634 -33.657686,33.657686l0,44.87595c0,68.833894 47.950597,126.643316 112.191322,141.883496l0,60.059728l0,78.533636l33.657686,0l33.657686,0l0,-48.841463c64.240726,-15.240179 112.191322,-73.049601 112.191322,-141.883496l0,-44.87595c0,-18.589606 -15.069526,-33.65624 -33.657686,-33.65624z"/>
  <path stroke="null" id="svg_6" fill="#64C37D" d="m221.948314,73.909892l0,228.00829c-26.50906,-12.628321 -44.875949,-39.676818 -44.875949,-70.941022l0,-44.875949c0,-18.589605 -15.069526,-33.657685 -33.657685,-33.657685c-18.588159,0 -33.657685,15.066633 -33.657685,33.657685l0,44.875949c0,68.833892 47.950595,126.643312 112.191319,141.883491l0,60.059726l0,78.533634l33.657685,0l0,-471.201802c-18.588159,0 -33.657685,15.06808 -33.657685,33.657685z"/>
  <g id="svg_7"/>
  <g id="svg_8"/>
  <g id="svg_9"/>
  <g id="svg_10"/>
  <g id="svg_11"/>
  <g id="svg_12"/>
  <g id="svg_13"/>
  <g id="svg_14"/>
  <g id="svg_15"/>
  <g id="svg_16"/>
  <g id="svg_17"/>
  <g id="svg_18"/>
  <g id="svg_19"/>
  <g id="svg_20"/>
  <g id="svg_21"/>
 </g>
</svg>